<mxfile host="app.diagrams.net" modified="2023-02-23T14:09:12.695Z" agent="5.0 (Windows NT 10.0; Win64; x64) AppleWebKit/537.36 (KHTML, like Gecko) Chrome/109.0.0.0 Safari/537.36" etag="DP6jwaDGwv7ikU-MNhJW" version="20.8.23" type="github">
  <diagram name="Page-1" id="58cdce13-f638-feb5-8d6f-7d28b1aa9fa0">
    <mxGraphModel dx="1481" dy="1683" grid="1" gridSize="10" guides="1" tooltips="1" connect="1" arrows="1" fold="1" page="1" pageScale="1" pageWidth="1100" pageHeight="850" background="none" math="0" shadow="0">
      <root>
        <mxCell id="0" />
        <mxCell id="1" parent="0" />
        <mxCell id="382b91b5511bd0f7-5" value="Activity" style="rounded=1;whiteSpace=wrap;html=1;arcSize=24;fillColor=#ffffc0;strokeColor=#ff0000;shadow=0;comic=0;labelBackgroundColor=none;fontFamily=Verdana;fontSize=12;fontColor=#000000;align=center;" parent="1" vertex="1">
          <mxGeometry x="195" y="705" width="120" height="60" as="geometry" />
        </mxCell>
        <mxCell id="382b91b5511bd0f7-10" value="Activity" style="rounded=1;whiteSpace=wrap;html=1;arcSize=24;fillColor=#ffffc0;strokeColor=#ff0000;shadow=0;comic=0;labelBackgroundColor=none;fontFamily=Verdana;fontSize=12;fontColor=#000000;align=center;" parent="1" vertex="1">
          <mxGeometry x="475" y="705" width="120" height="60" as="geometry" />
        </mxCell>
        <mxCell id="2a3bc250acf0617d-7" value="Container" style="swimlane;whiteSpace=wrap;html=1;rounded=1;shadow=0;comic=0;labelBackgroundColor=none;strokeWidth=1;fontFamily=Verdana;fontSize=12;align=center;" parent="1" vertex="1">
          <mxGeometry x="50" y="890" width="930" height="200" as="geometry" />
        </mxCell>
        <mxCell id="3cde6dad864a17aa-10" style="edgeStyle=elbowEdgeStyle;html=1;labelBackgroundColor=none;endArrow=open;endSize=8;strokeColor=#ff0000;fontFamily=Verdana;fontSize=12;align=left;" parent="2a3bc250acf0617d-7" source="382b91b5511bd0f7-8" target="3cde6dad864a17aa-1" edge="1">
          <mxGeometry relative="1" as="geometry" />
        </mxCell>
        <mxCell id="382b91b5511bd0f7-8" value="Activity" style="rounded=1;whiteSpace=wrap;html=1;arcSize=24;fillColor=#ffffc0;strokeColor=#ff0000;shadow=0;comic=0;labelBackgroundColor=none;fontFamily=Verdana;fontSize=12;fontColor=#000000;align=center;" parent="2a3bc250acf0617d-7" vertex="1">
          <mxGeometry x="215" y="65" width="120" height="60" as="geometry" />
        </mxCell>
        <mxCell id="24f968d109e7d6b4-3" value="" style="ellipse;html=1;shape=endState;fillColor=#000000;strokeColor=#ff0000;rounded=1;shadow=0;comic=0;labelBackgroundColor=none;fontFamily=Verdana;fontSize=12;fontColor=#000000;align=center;" parent="2a3bc250acf0617d-7" vertex="1">
          <mxGeometry x="815" y="80" width="30" height="30" as="geometry" />
        </mxCell>
        <mxCell id="3cde6dad864a17aa-9" style="edgeStyle=elbowEdgeStyle;html=1;labelBackgroundColor=none;endArrow=open;endSize=8;strokeColor=#ff0000;fontFamily=Verdana;fontSize=12;align=left;" parent="2a3bc250acf0617d-7" source="2a3bc250acf0617d-3" target="382b91b5511bd0f7-8" edge="1">
          <mxGeometry relative="1" as="geometry" />
        </mxCell>
        <mxCell id="2a3bc250acf0617d-3" value="" style="ellipse;html=1;shape=startState;fillColor=#000000;strokeColor=#ff0000;rounded=1;shadow=0;comic=0;labelBackgroundColor=none;fontFamily=Verdana;fontSize=12;fontColor=#000000;align=center;direction=south;" parent="2a3bc250acf0617d-7" vertex="1">
          <mxGeometry x="75" y="80" width="30" height="30" as="geometry" />
        </mxCell>
        <mxCell id="3cde6dad864a17aa-11" style="edgeStyle=elbowEdgeStyle;html=1;labelBackgroundColor=none;endArrow=open;endSize=8;strokeColor=#ff0000;fontFamily=Verdana;fontSize=12;align=left;" parent="2a3bc250acf0617d-7" source="3cde6dad864a17aa-1" target="3cde6dad864a17aa-2" edge="1">
          <mxGeometry relative="1" as="geometry" />
        </mxCell>
        <mxCell id="3cde6dad864a17aa-1" value="Activity" style="rounded=1;whiteSpace=wrap;html=1;arcSize=24;fillColor=#ffffc0;strokeColor=#ff0000;shadow=0;comic=0;labelBackgroundColor=none;fontFamily=Verdana;fontSize=12;fontColor=#000000;align=center;" parent="2a3bc250acf0617d-7" vertex="1">
          <mxGeometry x="400" y="65" width="120" height="60" as="geometry" />
        </mxCell>
        <mxCell id="3cde6dad864a17aa-12" style="edgeStyle=elbowEdgeStyle;html=1;labelBackgroundColor=none;endArrow=open;endSize=8;strokeColor=#ff0000;fontFamily=Verdana;fontSize=12;align=left;" parent="2a3bc250acf0617d-7" source="3cde6dad864a17aa-2" target="24f968d109e7d6b4-3" edge="1">
          <mxGeometry relative="1" as="geometry" />
        </mxCell>
        <mxCell id="3cde6dad864a17aa-2" value="Activity" style="rounded=1;whiteSpace=wrap;html=1;arcSize=24;fillColor=#ffffc0;strokeColor=#ff0000;shadow=0;comic=0;labelBackgroundColor=none;fontFamily=Verdana;fontSize=12;fontColor=#000000;align=center;" parent="2a3bc250acf0617d-7" vertex="1">
          <mxGeometry x="585" y="65" width="120" height="60" as="geometry" />
        </mxCell>
        <mxCell id="2a3bc250acf0617d-13" style="edgeStyle=orthogonalEdgeStyle;html=1;exitX=1;exitY=0.5;entryX=0;entryY=0.5;labelBackgroundColor=none;endArrow=open;endSize=8;strokeColor=#ff0000;fontFamily=Verdana;fontSize=12;align=left;" parent="1" source="382b91b5511bd0f7-5" target="382b91b5511bd0f7-10" edge="1">
          <mxGeometry relative="1" as="geometry" />
        </mxCell>
        <mxCell id="3cde6dad864a17aa-6" style="edgeStyle=elbowEdgeStyle;html=1;labelBackgroundColor=none;endArrow=open;endSize=8;strokeColor=#ff0000;fontFamily=Verdana;fontSize=12;align=left;entryX=0.75;entryY=1;" parent="1" source="2a3bc250acf0617d-7" target="382b91b5511bd0f7-5" edge="1">
          <mxGeometry relative="1" as="geometry">
            <mxPoint x="295" y="900" as="sourcePoint" />
            <mxPoint x="295" y="775" as="targetPoint" />
          </mxGeometry>
        </mxCell>
        <mxCell id="3cde6dad864a17aa-7" style="edgeStyle=elbowEdgeStyle;html=1;labelBackgroundColor=none;endArrow=open;endSize=8;strokeColor=#ff0000;fontFamily=Verdana;fontSize=12;align=left;entryX=0.5;entryY=1;" parent="1" source="2a3bc250acf0617d-7" target="382b91b5511bd0f7-5" edge="1">
          <mxGeometry relative="1" as="geometry">
            <mxPoint x="295" y="900" as="sourcePoint" />
            <mxPoint x="295" y="775" as="targetPoint" />
          </mxGeometry>
        </mxCell>
        <mxCell id="3cde6dad864a17aa-8" style="edgeStyle=elbowEdgeStyle;html=1;labelBackgroundColor=none;endArrow=open;endSize=8;strokeColor=#ff0000;fontFamily=Verdana;fontSize=12;align=left;exitX=0.25;exitY=1;" parent="1" source="382b91b5511bd0f7-5" target="2a3bc250acf0617d-7" edge="1">
          <mxGeometry relative="1" as="geometry">
            <mxPoint x="305" y="910" as="sourcePoint" />
            <mxPoint x="305" y="785" as="targetPoint" />
          </mxGeometry>
        </mxCell>
        <mxCell id="XvRTc8nWdfIURf5c1jla-13" value="Ciclo de referência" style="swimlane;whiteSpace=wrap;html=1;" vertex="1" parent="1">
          <mxGeometry x="765" y="680" width="200" height="120" as="geometry" />
        </mxCell>
        <mxCell id="382b91b5511bd0f7-9" value="Activity" style="rounded=1;whiteSpace=wrap;html=1;arcSize=24;fillColor=#ffffc0;strokeColor=#ff0000;shadow=0;comic=0;labelBackgroundColor=none;fontFamily=Verdana;fontSize=12;fontColor=#000000;align=center;" parent="XvRTc8nWdfIURf5c1jla-13" vertex="1">
          <mxGeometry x="40" y="40" width="120" height="60" as="geometry" />
        </mxCell>
        <mxCell id="XvRTc8nWdfIURf5c1jla-17" value="Activity" style="rounded=1;whiteSpace=wrap;html=1;arcSize=24;fillColor=#ffffc0;strokeColor=#ff0000;shadow=0;comic=0;labelBackgroundColor=none;fontFamily=Verdana;fontSize=12;fontColor=#000000;align=center;" vertex="1" parent="1">
          <mxGeometry x="1045" y="710" width="120" height="60" as="geometry" />
        </mxCell>
        <mxCell id="XvRTc8nWdfIURf5c1jla-19" value="Ciclo de verificação" style="swimlane;whiteSpace=wrap;html=1;" vertex="1" parent="1">
          <mxGeometry x="175" y="-10" width="1085" height="660" as="geometry" />
        </mxCell>
        <mxCell id="382b91b5511bd0f7-1" value="" style="ellipse;html=1;shape=startState;fillColor=#000000;strokeColor=#ff0000;rounded=1;shadow=0;comic=0;labelBackgroundColor=none;fontFamily=Verdana;fontSize=12;fontColor=#000000;align=center;direction=south;" parent="XvRTc8nWdfIURf5c1jla-19" vertex="1">
          <mxGeometry x="10" y="125" width="30" height="30" as="geometry" />
        </mxCell>
        <mxCell id="382b91b5511bd0f7-6" value="Solicita referência" style="rounded=1;whiteSpace=wrap;html=1;arcSize=24;fillColor=#ffffc0;strokeColor=#ff0000;shadow=0;comic=0;labelBackgroundColor=none;fontFamily=Verdana;fontSize=12;fontColor=#000000;align=center;" parent="XvRTc8nWdfIURf5c1jla-19" vertex="1">
          <mxGeometry x="625" y="110.62" width="120" height="60" as="geometry" />
        </mxCell>
        <mxCell id="XvRTc8nWdfIURf5c1jla-22" value="" style="edgeStyle=orthogonalEdgeStyle;html=1;labelBackgroundColor=none;endArrow=none;endSize=8;strokeColor=#ff0000;fontFamily=Verdana;fontSize=12;align=left;" edge="1" parent="XvRTc8nWdfIURf5c1jla-19" source="382b91b5511bd0f7-1" target="XvRTc8nWdfIURf5c1jla-21">
          <mxGeometry relative="1" as="geometry">
            <mxPoint x="200" y="190" as="sourcePoint" />
            <mxPoint x="700" y="190" as="targetPoint" />
          </mxGeometry>
        </mxCell>
        <mxCell id="XvRTc8nWdfIURf5c1jla-26" value="" style="edgeStyle=orthogonalEdgeStyle;rounded=0;orthogonalLoop=1;jettySize=auto;html=1;" edge="1" parent="XvRTc8nWdfIURf5c1jla-19" source="XvRTc8nWdfIURf5c1jla-21" target="XvRTc8nWdfIURf5c1jla-18">
          <mxGeometry relative="1" as="geometry" />
        </mxCell>
        <mxCell id="XvRTc8nWdfIURf5c1jla-21" value="Verifica permissões" style="rounded=1;whiteSpace=wrap;html=1;arcSize=24;fillColor=#ffffc0;strokeColor=#ff0000;shadow=0;comic=0;labelBackgroundColor=none;fontFamily=Verdana;fontSize=12;fontColor=#000000;align=center;" vertex="1" parent="XvRTc8nWdfIURf5c1jla-19">
          <mxGeometry x="100" y="110" width="120" height="60.62" as="geometry" />
        </mxCell>
        <mxCell id="XvRTc8nWdfIURf5c1jla-28" value="Sim" style="edgeStyle=orthogonalEdgeStyle;rounded=0;orthogonalLoop=1;jettySize=auto;html=1;entryX=0.5;entryY=0;entryDx=0;entryDy=0;" edge="1" parent="XvRTc8nWdfIURf5c1jla-19" source="XvRTc8nWdfIURf5c1jla-18" target="XvRTc8nWdfIURf5c1jla-29">
          <mxGeometry relative="1" as="geometry">
            <mxPoint x="335" y="250" as="targetPoint" />
          </mxGeometry>
        </mxCell>
        <mxCell id="XvRTc8nWdfIURf5c1jla-61" value="Não" style="edgeStyle=orthogonalEdgeStyle;rounded=0;orthogonalLoop=1;jettySize=auto;html=1;" edge="1" parent="XvRTc8nWdfIURf5c1jla-19" source="XvRTc8nWdfIURf5c1jla-18" target="XvRTc8nWdfIURf5c1jla-60">
          <mxGeometry relative="1" as="geometry" />
        </mxCell>
        <mxCell id="XvRTc8nWdfIURf5c1jla-18" value="Referenciada?" style="rhombus;whiteSpace=wrap;html=1;" vertex="1" parent="XvRTc8nWdfIURf5c1jla-19">
          <mxGeometry x="280" y="85" width="110" height="110" as="geometry" />
        </mxCell>
        <mxCell id="XvRTc8nWdfIURf5c1jla-31" value="Não" style="edgeStyle=orthogonalEdgeStyle;rounded=0;orthogonalLoop=1;jettySize=auto;html=1;entryX=0.75;entryY=1;entryDx=0;entryDy=0;" edge="1" parent="XvRTc8nWdfIURf5c1jla-19" source="XvRTc8nWdfIURf5c1jla-29" target="XvRTc8nWdfIURf5c1jla-21">
          <mxGeometry relative="1" as="geometry">
            <mxPoint x="350" y="385" as="targetPoint" />
          </mxGeometry>
        </mxCell>
        <mxCell id="XvRTc8nWdfIURf5c1jla-37" value="Sim" style="edgeStyle=orthogonalEdgeStyle;rounded=0;orthogonalLoop=1;jettySize=auto;html=1;" edge="1" parent="XvRTc8nWdfIURf5c1jla-19" source="XvRTc8nWdfIURf5c1jla-29">
          <mxGeometry relative="1" as="geometry">
            <mxPoint x="460" y="385" as="targetPoint" />
          </mxGeometry>
        </mxCell>
        <mxCell id="XvRTc8nWdfIURf5c1jla-29" value="Receita&lt;br&gt;carregada?" style="rhombus;whiteSpace=wrap;html=1;" vertex="1" parent="XvRTc8nWdfIURf5c1jla-19">
          <mxGeometry x="280" y="330" width="110" height="110" as="geometry" />
        </mxCell>
        <mxCell id="XvRTc8nWdfIURf5c1jla-41" style="edgeStyle=orthogonalEdgeStyle;rounded=0;orthogonalLoop=1;jettySize=auto;html=1;exitX=0.5;exitY=0;exitDx=0;exitDy=0;entryX=0.5;entryY=0;entryDx=0;entryDy=0;" edge="1" parent="XvRTc8nWdfIURf5c1jla-19" source="XvRTc8nWdfIURf5c1jla-39" target="XvRTc8nWdfIURf5c1jla-21">
          <mxGeometry relative="1" as="geometry" />
        </mxCell>
        <mxCell id="XvRTc8nWdfIURf5c1jla-42" value="Não finalizou" style="edgeLabel;html=1;align=center;verticalAlign=middle;resizable=0;points=[];" vertex="1" connectable="0" parent="XvRTc8nWdfIURf5c1jla-41">
          <mxGeometry x="-0.0903" y="-1" relative="1" as="geometry">
            <mxPoint as="offset" />
          </mxGeometry>
        </mxCell>
        <mxCell id="XvRTc8nWdfIURf5c1jla-66" style="edgeStyle=orthogonalEdgeStyle;rounded=0;orthogonalLoop=1;jettySize=auto;html=1;exitX=0.25;exitY=1;exitDx=0;exitDy=0;entryX=0.25;entryY=0;entryDx=0;entryDy=0;" edge="1" parent="XvRTc8nWdfIURf5c1jla-19" source="XvRTc8nWdfIURf5c1jla-39" target="XvRTc8nWdfIURf5c1jla-49">
          <mxGeometry relative="1" as="geometry" />
        </mxCell>
        <mxCell id="XvRTc8nWdfIURf5c1jla-39" value="Ciclo de referência" style="swimlane;whiteSpace=wrap;html=1;" vertex="1" parent="XvRTc8nWdfIURf5c1jla-19">
          <mxGeometry x="820" y="82.81" width="200" height="115" as="geometry" />
        </mxCell>
        <mxCell id="XvRTc8nWdfIURf5c1jla-38" value="*Verificar a página correspondente" style="rounded=1;whiteSpace=wrap;html=1;arcSize=24;fillColor=#ffffc0;strokeColor=#ff0000;shadow=0;comic=0;labelBackgroundColor=none;fontFamily=Verdana;fontSize=12;fontColor=#000000;align=center;" vertex="1" parent="XvRTc8nWdfIURf5c1jla-39">
          <mxGeometry x="40" y="35.62" width="120" height="60" as="geometry" />
        </mxCell>
        <mxCell id="XvRTc8nWdfIURf5c1jla-45" style="edgeStyle=orthogonalEdgeStyle;rounded=0;orthogonalLoop=1;jettySize=auto;html=1;exitX=0.5;exitY=1;exitDx=0;exitDy=0;entryX=0.5;entryY=0;entryDx=0;entryDy=0;" edge="1" parent="XvRTc8nWdfIURf5c1jla-19" source="XvRTc8nWdfIURf5c1jla-44" target="XvRTc8nWdfIURf5c1jla-69">
          <mxGeometry relative="1" as="geometry">
            <mxPoint x="138" y="170" as="targetPoint" />
          </mxGeometry>
        </mxCell>
        <mxCell id="XvRTc8nWdfIURf5c1jla-46" value="Sim" style="edgeLabel;html=1;align=center;verticalAlign=middle;resizable=0;points=[];" vertex="1" connectable="0" parent="XvRTc8nWdfIURf5c1jla-45">
          <mxGeometry x="-0.7072" y="-2" relative="1" as="geometry">
            <mxPoint as="offset" />
          </mxGeometry>
        </mxCell>
        <mxCell id="XvRTc8nWdfIURf5c1jla-48" value="Não" style="edgeStyle=orthogonalEdgeStyle;rounded=0;orthogonalLoop=1;jettySize=auto;html=1;" edge="1" parent="XvRTc8nWdfIURf5c1jla-19" source="XvRTc8nWdfIURf5c1jla-44" target="XvRTc8nWdfIURf5c1jla-47">
          <mxGeometry relative="1" as="geometry" />
        </mxCell>
        <mxCell id="XvRTc8nWdfIURf5c1jla-44" value="Buscou &lt;br&gt;posição&lt;br&gt;inicial?" style="rhombus;whiteSpace=wrap;html=1;" vertex="1" parent="XvRTc8nWdfIURf5c1jla-19">
          <mxGeometry x="460" y="330" width="110" height="110" as="geometry" />
        </mxCell>
        <mxCell id="XvRTc8nWdfIURf5c1jla-51" style="edgeStyle=orthogonalEdgeStyle;rounded=0;orthogonalLoop=1;jettySize=auto;html=1;exitX=1;exitY=0.5;exitDx=0;exitDy=0;entryX=0;entryY=0.5;entryDx=0;entryDy=0;" edge="1" parent="XvRTc8nWdfIURf5c1jla-19" source="XvRTc8nWdfIURf5c1jla-47" target="XvRTc8nWdfIURf5c1jla-49">
          <mxGeometry relative="1" as="geometry">
            <mxPoint x="805" y="385" as="targetPoint" />
          </mxGeometry>
        </mxCell>
        <mxCell id="XvRTc8nWdfIURf5c1jla-47" value="Aguarda comando&amp;nbsp;&lt;br&gt;de pos. inical" style="rounded=1;whiteSpace=wrap;html=1;arcSize=24;fillColor=#ffffc0;strokeColor=#ff0000;shadow=0;comic=0;labelBackgroundColor=none;fontFamily=Verdana;fontSize=12;fontColor=#000000;align=center;" vertex="1" parent="XvRTc8nWdfIURf5c1jla-19">
          <mxGeometry x="635" y="355" width="120" height="60" as="geometry" />
        </mxCell>
        <mxCell id="XvRTc8nWdfIURf5c1jla-67" style="edgeStyle=orthogonalEdgeStyle;rounded=0;orthogonalLoop=1;jettySize=auto;html=1;exitX=0.5;exitY=1;exitDx=0;exitDy=0;entryX=0;entryY=1;entryDx=0;entryDy=0;" edge="1" parent="XvRTc8nWdfIURf5c1jla-19" source="XvRTc8nWdfIURf5c1jla-49" target="XvRTc8nWdfIURf5c1jla-21">
          <mxGeometry relative="1" as="geometry">
            <mxPoint x="76.44387637867646" y="230" as="targetPoint" />
            <Array as="points">
              <mxPoint x="920" y="630" />
              <mxPoint x="100" y="630" />
            </Array>
          </mxGeometry>
        </mxCell>
        <mxCell id="XvRTc8nWdfIURf5c1jla-68" value="Buscou" style="edgeLabel;html=1;align=center;verticalAlign=middle;resizable=0;points=[];" vertex="1" connectable="0" parent="XvRTc8nWdfIURf5c1jla-67">
          <mxGeometry x="-0.7071" y="-1" relative="1" as="geometry">
            <mxPoint as="offset" />
          </mxGeometry>
        </mxCell>
        <mxCell id="XvRTc8nWdfIURf5c1jla-49" value="Ciclo de posição inicial" style="swimlane;whiteSpace=wrap;html=1;" vertex="1" parent="XvRTc8nWdfIURf5c1jla-19">
          <mxGeometry x="820" y="320" width="200" height="130" as="geometry" />
        </mxCell>
        <mxCell id="XvRTc8nWdfIURf5c1jla-53" value="*Verificar a página correspondente" style="rounded=1;whiteSpace=wrap;html=1;arcSize=24;fillColor=#ffffc0;strokeColor=#ff0000;shadow=0;comic=0;labelBackgroundColor=none;fontFamily=Verdana;fontSize=12;fontColor=#000000;align=center;" vertex="1" parent="XvRTc8nWdfIURf5c1jla-49">
          <mxGeometry x="40" y="45" width="120" height="60" as="geometry" />
        </mxCell>
        <mxCell id="XvRTc8nWdfIURf5c1jla-57" value="Comando" style="edgeStyle=orthogonalEdgeStyle;rounded=0;orthogonalLoop=1;jettySize=auto;html=1;entryX=0;entryY=0.5;entryDx=0;entryDy=0;" edge="1" parent="XvRTc8nWdfIURf5c1jla-19" target="XvRTc8nWdfIURf5c1jla-39">
          <mxGeometry relative="1" as="geometry">
            <mxPoint x="745" y="140" as="sourcePoint" />
          </mxGeometry>
        </mxCell>
        <mxCell id="XvRTc8nWdfIURf5c1jla-62" value="Sim" style="edgeStyle=orthogonalEdgeStyle;rounded=0;orthogonalLoop=1;jettySize=auto;html=1;" edge="1" parent="XvRTc8nWdfIURf5c1jla-19" source="XvRTc8nWdfIURf5c1jla-60" target="382b91b5511bd0f7-6">
          <mxGeometry relative="1" as="geometry" />
        </mxCell>
        <mxCell id="XvRTc8nWdfIURf5c1jla-64" value="Não" style="edgeStyle=orthogonalEdgeStyle;rounded=0;orthogonalLoop=1;jettySize=auto;html=1;exitX=0.5;exitY=1;exitDx=0;exitDy=0;entryX=0;entryY=0.25;entryDx=0;entryDy=0;" edge="1" parent="XvRTc8nWdfIURf5c1jla-19" source="XvRTc8nWdfIURf5c1jla-60" target="XvRTc8nWdfIURf5c1jla-63">
          <mxGeometry relative="1" as="geometry" />
        </mxCell>
        <mxCell id="XvRTc8nWdfIURf5c1jla-60" value="Em posição&lt;br&gt;para&lt;br&gt;referenciar?" style="rhombus;whiteSpace=wrap;html=1;" vertex="1" parent="XvRTc8nWdfIURf5c1jla-19">
          <mxGeometry x="455" y="85.31" width="110" height="110" as="geometry" />
        </mxCell>
        <mxCell id="XvRTc8nWdfIURf5c1jla-65" style="edgeStyle=orthogonalEdgeStyle;rounded=0;orthogonalLoop=1;jettySize=auto;html=1;exitX=0;exitY=0.75;exitDx=0;exitDy=0;entryX=0;entryY=1;entryDx=0;entryDy=0;" edge="1" parent="XvRTc8nWdfIURf5c1jla-19" source="XvRTc8nWdfIURf5c1jla-63" target="XvRTc8nWdfIURf5c1jla-60">
          <mxGeometry relative="1" as="geometry" />
        </mxCell>
        <mxCell id="XvRTc8nWdfIURf5c1jla-63" value="Solicita&lt;br&gt;movimento&lt;br&gt;manual" style="rounded=1;whiteSpace=wrap;html=1;arcSize=24;fillColor=#ffffc0;strokeColor=#ff0000;shadow=0;comic=0;labelBackgroundColor=none;fontFamily=Verdana;fontSize=12;fontColor=#000000;align=center;" vertex="1" parent="XvRTc8nWdfIURf5c1jla-19">
          <mxGeometry x="625" y="210" width="120" height="60" as="geometry" />
        </mxCell>
        <mxCell id="XvRTc8nWdfIURf5c1jla-70" style="edgeStyle=orthogonalEdgeStyle;rounded=0;orthogonalLoop=1;jettySize=auto;html=1;exitX=0;exitY=0.5;exitDx=0;exitDy=0;entryX=0.5;entryY=1;entryDx=0;entryDy=0;" edge="1" parent="XvRTc8nWdfIURf5c1jla-19" source="XvRTc8nWdfIURf5c1jla-69" target="XvRTc8nWdfIURf5c1jla-21">
          <mxGeometry relative="1" as="geometry" />
        </mxCell>
        <mxCell id="XvRTc8nWdfIURf5c1jla-71" value="Não" style="edgeLabel;html=1;align=center;verticalAlign=middle;resizable=0;points=[];" vertex="1" connectable="0" parent="XvRTc8nWdfIURf5c1jla-70">
          <mxGeometry x="-0.8241" y="-2" relative="1" as="geometry">
            <mxPoint as="offset" />
          </mxGeometry>
        </mxCell>
        <mxCell id="XvRTc8nWdfIURf5c1jla-74" value="Sim" style="edgeStyle=orthogonalEdgeStyle;rounded=0;orthogonalLoop=1;jettySize=auto;html=1;exitX=1;exitY=0.5;exitDx=0;exitDy=0;entryX=0;entryY=0.25;entryDx=0;entryDy=0;" edge="1" parent="XvRTc8nWdfIURf5c1jla-19" source="XvRTc8nWdfIURf5c1jla-69" target="XvRTc8nWdfIURf5c1jla-72">
          <mxGeometry relative="1" as="geometry" />
        </mxCell>
        <mxCell id="XvRTc8nWdfIURf5c1jla-69" value="Tem permissão&lt;br&gt;para auto?" style="rhombus;whiteSpace=wrap;html=1;" vertex="1" parent="XvRTc8nWdfIURf5c1jla-19">
          <mxGeometry x="460" y="470" width="110" height="110" as="geometry" />
        </mxCell>
        <mxCell id="XvRTc8nWdfIURf5c1jla-76" style="edgeStyle=orthogonalEdgeStyle;rounded=0;orthogonalLoop=1;jettySize=auto;html=1;exitX=0;exitY=0.75;exitDx=0;exitDy=0;entryX=0.25;entryY=1;entryDx=0;entryDy=0;" edge="1" parent="XvRTc8nWdfIURf5c1jla-19" source="XvRTc8nWdfIURf5c1jla-72" target="XvRTc8nWdfIURf5c1jla-21">
          <mxGeometry relative="1" as="geometry" />
        </mxCell>
        <mxCell id="XvRTc8nWdfIURf5c1jla-72" value="Ciclo automático" style="swimlane;whiteSpace=wrap;html=1;" vertex="1" parent="XvRTc8nWdfIURf5c1jla-19">
          <mxGeometry x="645" y="490" width="200" height="130" as="geometry" />
        </mxCell>
        <mxCell id="XvRTc8nWdfIURf5c1jla-73" value="*Verificar a página correspondente" style="rounded=1;whiteSpace=wrap;html=1;arcSize=24;fillColor=#ffffc0;strokeColor=#ff0000;shadow=0;comic=0;labelBackgroundColor=none;fontFamily=Verdana;fontSize=12;fontColor=#000000;align=center;" vertex="1" parent="XvRTc8nWdfIURf5c1jla-72">
          <mxGeometry x="40" y="45" width="120" height="60" as="geometry" />
        </mxCell>
      </root>
    </mxGraphModel>
  </diagram>
</mxfile>
